<?xml version="1.0" encoding="utf-8"?>
<!-- Generator: Adobe Illustrator 24.0.2, SVG Export Plug-In . SVG Version: 6.00 Build 0)  -->
<svg version="1.1" id="Layer_1" xmlns="http://www.w3.org/2000/svg" xmlns:xlink="http://www.w3.org/1999/xlink" x="0px" y="0px"
	 viewBox="0 0 101 111" style="enable-background:new 0 0 101 111;" xml:space="preserve">
<style type="text/css">
	.st0{opacity:0.3;}
</style>
<path class="st0" d="M86.84,55.21c0,11.9,0.01,23.79,0,35.69c-0.01,8.41-2,10.35-10.59,10.35c-17.32,0.01-34.63,0.01-51.95,0
	c-8.24,0-10.67-2.22-10.75-10.5c-0.13-15.03-0.04-30.07-0.04-45.11c0-8.59-0.11-17.18,0.04-25.77c0.14-8.43,2.42-10.61,10.64-10.61
	c17.65-0.01,35.29-0.02,52.94,0c7.49,0.01,9.69,2.24,9.71,9.76C86.86,31.09,86.84,43.15,86.84,55.21z M83.87,55.67
	c0-11.75,0.03-23.49-0.01-35.24c-0.03-7.06-0.81-7.84-7.6-7.85c-17.34-0.02-34.67-0.02-52.01,0c-6.25,0.01-7.37,0.97-7.39,7.06
	c-0.07,23.82-0.07,47.64,0.01,71.47c0.02,5.75,1.36,6.97,7.11,6.99c17.5,0.04,35,0.03,52.51,0c6.07-0.01,7.32-1.19,7.36-7.2
	C83.91,79.16,83.86,67.41,83.87,55.67z"/>
<path class="st0" d="M50.01,38.54c-6.43,0-12.86-0.09-19.29,0.04c-4.27,0.08-6.48-1.62-6.47-6.08c0.03-17-1.37-15.66,14.76-15.63
	c10.22,0.02,20.45,0.08,30.67-0.03c4.47-0.05,6.87,1.57,6.63,6.36c-0.16,3.3-0.06,6.61-0.03,9.91c0.03,3.73-1.88,5.43-5.49,5.43
	C63.85,38.54,56.93,38.54,50.01,38.54z M50.51,35.4c4.12,0,8.25,0.06,12.37-0.01c11.21-0.18,10.32,2.14,10.47-10.69
	c0.04-3.49-1.27-4.61-4.66-4.56c-10.23,0.15-20.46-0.03-30.68,0.07c-12.14,0.12-10.41-1.93-10.65,10.87
	c-0.06,3.21,1.14,4.44,4.35,4.36C37.97,35.29,44.24,35.4,50.51,35.4z"/>
<path class="st0" d="M76.27,76.82c0,3.8-0.08,7.6,0.02,11.4c0.09,3.55-1.7,4.97-5.03,5.36c-8.54,0.99-10.34-0.53-10.35-9.09
	c0-6.12-0.07-12.23,0.02-18.35c0.08-5.51,1.16-6.29,8.11-6.26c6.22,0.03,7.11,0.74,7.21,6.02C76.33,69.54,76.27,73.18,76.27,76.82z
	 M64.06,76.7c0,3.13,0.15,6.28-0.04,9.4c-0.19,3.26,1.13,4.36,4.33,4.3c2.97-0.06,5.12-0.23,5-4.11c-0.2-6.43-0.15-12.87-0.01-19.3
	c0.08-3.39-1.57-4.16-4.57-4.17c-3.21-0.01-5.01,0.83-4.75,4.48C64.23,70.42,64.05,73.57,64.06,76.7z"/>
<path class="st0" d="M32.09,75.28c-6.42,0.01-7.82-1.39-7.83-7.77c-0.01-6.44,1.33-7.79,7.74-7.8c6.47-0.01,7.92,1.4,7.94,7.69
	C39.96,73.65,38.34,75.27,32.09,75.28z M32.31,62.93c-3.2-0.25-5.04,0.7-4.99,4.36c0.05,3.21,0.9,4.9,4.47,4.91
	c3.26,0.01,4.89-0.95,4.88-4.47C36.66,64.57,35.88,62.54,32.31,62.93z"/>
<path class="st0" d="M68.75,41.5c6.45-0.01,7.86,1.37,7.85,7.71c-0.01,6.1-1.74,7.76-8.07,7.71c-6.34-0.05-7.63-1.39-7.61-7.94
	C60.93,42.36,61.81,41.51,68.75,41.5z M69,53.49c3.55,0.91,4.23-1.33,4.31-4.44c0.09-3.39-1.36-4.64-4.73-4.62
	c-3.43,0.02-4.6,1.39-4.6,4.75C63.99,52.64,65.32,54.09,69,53.49z"/>
<path class="st0" d="M32.19,56.92c-6.63,0.03-7.92-1.2-7.94-7.63c-0.02-6.42,1.42-7.9,7.72-7.92c6.44-0.02,7.92,1.41,7.93,7.7
	C39.92,55.61,38.66,56.89,32.19,56.92z M32.11,53.54c3.5,0.65,4.55-1.11,4.57-4.38c0.01-3.17-0.83-4.79-4.42-4.73
	c-3.5,0.06-5,1.16-4.94,4.84C27.37,52.73,28.75,54.07,32.11,53.54z"/>
<path class="st0" d="M58.04,67.66c-0.02,6.48-1.24,7.66-7.87,7.61c-6.25-0.04-7.67-1.55-7.58-8.06c0.08-6.34,1.29-7.47,8.04-7.47
	C57.05,59.75,58.06,60.83,58.04,67.66z M54.91,67.45c0.6-3.59-1.32-4.56-4.55-4.59c-3.34-0.03-4.61,1.24-4.57,4.7
	c0.03,3.44,1.23,4.68,4.63,4.65C53.81,72.17,55.41,70.95,54.91,67.45z"/>
<path class="st0" d="M58.06,49.33c-0.01,6.27-1.25,7.53-7.47,7.59c-6.48,0.06-7.97-1.38-8-7.72c-0.03-6.4,1.43-7.84,7.88-7.82
	C56.89,41.39,58.07,42.62,58.06,49.33z M50.3,53.53c3.42,0.55,4.77-0.83,4.75-4.35c-0.02-3.38-1.17-4.75-4.6-4.75
	c-3.33,0-4.7,1.11-4.65,4.62C45.85,52.38,46.71,54.18,50.3,53.53z"/>
<path class="st0" d="M58.01,85.78c0.02,6.6-1.24,7.88-7.68,7.86c-6.36-0.02-7.8-1.5-7.75-7.97c0.05-6.16,1.43-7.54,7.62-7.58
	C56.81,78.06,58,79.22,58.01,85.78z M50.22,90.27c3.35,0.52,4.88-0.68,4.82-4.29c-0.05-3.27-0.94-4.85-4.51-4.82
	c-3.29,0.03-4.8,0.97-4.73,4.54C45.87,88.93,46.53,90.93,50.22,90.27z"/>
<path class="st0" d="M31.74,93.65c-6.29-0.08-7.55-1.44-7.48-8.06c0.06-6.21,1.5-7.54,8.07-7.49c6.05,0.05,7.76,1.87,7.61,8.12
	C39.79,92.35,38.26,93.73,31.74,93.65z M31.87,90.27c3.3,0.58,4.85-0.68,4.81-4.24c-0.03-3.19-0.84-4.94-4.47-4.87
	c-3.2,0.06-4.96,0.84-4.87,4.47C27.41,88.79,28.11,90.89,31.87,90.27z"/>
</svg>
