<?xml version="1.0" encoding="utf-8"?>
<!-- Generator: Adobe Illustrator 24.0.2, SVG Export Plug-In . SVG Version: 6.00 Build 0)  -->
<svg version="1.1" id="Layer_1" xmlns="http://www.w3.org/2000/svg" xmlns:xlink="http://www.w3.org/1999/xlink" x="0px" y="0px"
	 viewBox="0 0 828 241" style="enable-background:new 0 0 828 241;" xml:space="preserve">
<style type="text/css">
	.st0{fill:#FFFFFF;}
	.st1{fill:#37B34A;}
</style>
<path class="st0" d="M54.78,181.29c-0.15,0-0.31,0-0.46,0c-10.36,0-10.36,0-10.36,10.4c0,10.94,0,10.94,10.78,10.94
	c10.61,0,10.61,0,10.61-10.66C65.34,181.29,65.34,181.29,54.78,181.29z"/>
<path class="st0" d="M96.5,181.29c-10.58,0-10.58,0-10.58,10.65c0,10.7,0,10.7,10.56,10.7c0.15,0,0.31,0,0.46,0
	c10.36,0,10.36,0,10.36-10.44C107.3,181.29,107.3,181.29,96.5,181.29z"/>
<path class="st0" d="M96.79,97.36c-10.87,0-10.87,0-10.87,10.83c0,10.52,0,10.52,10.74,10.52c10.65,0,10.65,0,10.65-10.62
	C107.3,97.36,107.3,97.36,96.79,97.36z"/>
<path class="st0" d="M54.8,139.32c-0.15,0-0.31,0-0.46,0c-10.38,0-10.38,0-10.38,10.38c0,10.96,0,10.96,10.76,10.96
	c10.63,0,10.63,0,10.63-10.64C65.34,139.32,65.34,139.32,54.8,139.32z"/>
<path class="st0" d="M149.32,70.61c-0.2-7.76-0.2-15.53,0-23.29c0.11-4.45-1.71-6.04-6.1-6c-15.37,0.15-30.74,0.06-46.11,0.06
	c-15.68,0-31.36,0.09-47.04-0.06c-4.31-0.04-6.28,1.39-6.16,5.92c0.2,7.91,0.18,15.84,0.01,23.75c-0.09,4.24,1.71,5.79,5.85,5.78
	c31.21-0.08,62.42-0.08,93.62,0.01C147.85,76.8,149.43,74.95,149.32,70.61z"/>
<path class="st0" d="M96.81,139.32c-10.89,0-10.89,0-10.89,10.81c0,10.54,0,10.54,10.72,10.54c10.67,0,10.67,0,10.67-10.6
	c0-0.15,0-0.31,0-0.46C107.3,139.32,107.3,139.32,96.81,139.32z"/>
<path class="st0" d="M54.29,97.34c-10.34,0.05-10.34,0.01-10.34,10.44c0,10.92,0,10.92,10.8,10.92c10.58,0,10.53,0,10.59-10.22
	C65.42,96.68,65.84,97.29,54.29,97.34z"/>
<path class="st0" d="M144.47,139.32c-3.72,0.04-7.45,0.11-11.17-0.02c-4.03-0.15-5.52,1.75-5.46,5.64
	c0.13,8.68,0.04,17.37,0.04,26.05c0,8.84,0.04,17.68-0.02,26.52c-0.03,3.5,1.54,5.16,5.03,5.13c3.88-0.04,7.75,0,11.63-0.02
	c3.26-0.01,4.75-1.66,4.75-4.93c-0.03-17.84-0.02-35.67-0.01-53.51C149.27,140.95,147.79,139.28,144.47,139.32z"/>
<path class="st1" d="M161.52,23.93c-43.21-0.06-86.41-0.06-129.62-0.01c-8.36,0.01-12.24,4.04-12.24,12.29
	c-0.01,28.6,0,57.19,0,85.79s-0.01,57.19,0,85.79c0,8.08,3.8,12.26,11.78,12.27c43.52,0.08,87.03,0.08,130.55-0.01
	c7.7-0.02,11.57-4.29,11.57-12.03c0.01-57.35,0.01-114.7,0-172.05C173.56,28.06,169.59,23.94,161.52,23.93z M54.6,125.31
	c-14.58,0.93-17.47-2.78-17.45-17.22c0.02-14.43,2.48-17.55,17.76-17.57c14.78-0.02,17.91,3.65,17.05,17.18
	c-0.01,0.15-0.01,0.31,0,0.47C72.85,122.35,69.34,126.27,54.6,125.31z M54.45,209.24c-14.44,0.96-17.29-3-17.3-16.91
	c-0.01-14.97,2.49-17.87,17.91-17.88c14.45-0.01,17.07,3.46,17.1,17.33C72.18,206.45,69.36,210.18,54.45,209.24z M54.97,167.48
	c-15.08,0-17.88-2.73-17.82-17.98c0.05-13.55,2.55-17.79,17.38-16.79c15.2-0.98,17.59,3.09,17.62,17.53
	C72.18,164.35,69.11,167.48,54.97,167.48z M96.54,167.48c-14.55,0-17.43-2.98-17.43-17.45c0-14.5,2.76-18.26,17.32-17.33
	c0.15,0.01,0.31,0.01,0.47,0c14.72-1.02,17.89,3.4,17.03,16.99C114.84,164.61,111.2,167.47,96.54,167.48z M96.66,209.45
	c-14.76,0.01-17.54-3.08-17.55-17.33c0-14.63,2.58-17.65,17.66-17.67c14.84-0.02,18.02,3.4,17.15,17.54
	C114.83,206.37,111.22,209.44,96.66,209.45z M113.92,108.1c0.91,14.31-2.67,17.42-17.3,17.41c-14.69,0-17.52-3.04-17.51-17.37
	c0.01-14.55,2.54-17.62,17.69-17.63C111.57,90.51,114.79,93.89,113.92,108.1z M96.14,83.34c-15.69,0-31.37,0.02-47.06-0.01
	c-8.11-0.01-11.7-3.57-11.73-11.58c-0.03-8.7-0.05-17.4,0.01-26.09c0.05-7.06,3.86-10.87,11.01-10.88c32.15-0.04,64.3-0.03,96.45,0
	c7.07,0.01,10.99,3.87,11.05,10.87c0.08,9.01,0.08,18.02,0,27.02c-0.06,6.69-4.03,10.62-10.8,10.64
	C128.75,83.38,112.45,83.34,96.14,83.34z M155.81,199.71c-0.04,5.27-4.27,9.28-9.55,9.47c-4.65,0.17-9.32,0.1-13.97,0.05
	c-7.13-0.07-10.95-3.83-11-10.89c-0.06-9.16-0.02-18.32-0.02-27.48c0-9.01-0.04-18.01,0.01-27.02c0.04-7.41,3.77-11.09,11.21-11.13
	c4.5-0.03,9.01-0.09,13.51,0.02c5.56,0.14,9.77,4.11,9.81,9.68C155.93,161.51,155.94,180.61,155.81,199.71z M138.34,125.52
	c-14.36-0.01-17.98-3.17-17.07-17.15c0.01-0.15,0.01-0.31,0-0.47c-0.89-14.21,2.44-18.13,17.28-17.17
	c15.17-1.02,17.48,3.35,17.52,17.15C156.12,122.47,153.34,125.53,138.34,125.52z"/>
<path class="st0" d="M138.66,97.36c-0.15,0-0.31,0-0.46,0c-10.31,0-10.31,0-10.31,10.46c0,10.89,0,10.89,10.83,10.89
	c10.55,0,10.55,0,10.55-10.71C149.27,97.36,149.27,97.36,138.66,97.36z"/>
<path d="M180.28,38.46c0-12.91-2.53-16.71-14.19-21.36c-46.32,0-92.63,0-138.95,0c-11.73,4.68-14.19,8.37-14.19,21.34
	c0,55.72,0,111.44,0,167.15c0,12.93,2.5,16.68,14.19,21.33c46.32,0,92.63,0,138.95,0c11.71-4.69,14.19-8.42,14.19-21.34
	C180.28,149.87,180.28,94.16,180.28,38.46z M161.99,220.06c-43.52,0.09-87.03,0.09-130.55,0.01c-7.98-0.01-11.78-4.19-11.78-12.27
	c-0.01-28.6,0-57.19,0-85.79s-0.01-57.19,0-85.79c0-8.25,3.88-12.28,12.24-12.29c43.21-0.05,86.41-0.06,129.62,0.01
	c8.07,0.01,12.04,4.13,12.04,12.05c0.01,57.35,0.01,114.7,0,172.05C173.56,215.78,169.69,220.05,161.99,220.06z"/>
<path d="M155.86,72.68c0.08-9.01,0.08-18.02,0-27.02c-0.06-7-3.98-10.86-11.05-10.87c-32.15-0.03-64.3-0.03-96.45,0
	c-7.14,0.01-10.96,3.82-11.01,10.88c-0.06,8.7-0.04,17.39-0.01,26.09c0.03,8.01,3.62,11.56,11.73,11.58
	c15.69,0.03,31.37,0.01,47.06,0.01c16.31,0,32.62,0.04,48.92-0.02C151.83,83.3,155.8,79.37,155.86,72.68z M49.76,76.78
	c-4.13,0.01-5.94-1.55-5.85-5.78c0.17-7.91,0.2-15.84-0.01-23.75c-0.12-4.53,1.86-5.96,6.16-5.92c15.68,0.14,31.36,0.06,47.04,0.06
	c15.37,0,30.74,0.09,46.11-0.06c4.38-0.04,6.21,1.55,6.1,6c-0.19,7.76-0.2,15.53,0,23.29c0.11,4.34-1.47,6.19-5.94,6.18
	C112.17,76.69,80.96,76.7,49.76,76.78z"/>
<path d="M146,132.73c-4.5-0.12-9.01-0.05-13.51-0.02c-7.44,0.05-11.17,3.72-11.21,11.13c-0.05,9.01-0.01,18.01-0.01,27.02
	c0,9.16-0.05,18.32,0.02,27.48c0.05,7.06,3.87,10.82,11,10.89c4.66,0.05,9.32,0.12,13.97-0.05c5.28-0.19,9.51-4.21,9.55-9.47
	c0.13-19.1,0.12-38.2,0-57.29C155.77,136.84,151.56,132.87,146,132.73z M144.53,202.62c-3.88,0.01-7.75-0.03-11.63,0.02
	c-3.5,0.04-5.06-1.62-5.03-5.13c0.07-8.84,0.02-17.68,0.02-26.52c0-8.68,0.08-17.37-0.04-26.05c-0.06-3.9,1.43-5.79,5.46-5.64
	c3.72,0.13,7.44,0.06,11.17,0.02c3.31-0.03,4.8,1.63,4.79,4.87c-0.01,17.84-0.02,35.67,0.01,53.51
	C149.29,200.96,147.8,202.61,144.53,202.62z"/>
<path d="M54.9,90.51c-15.28,0.02-17.73,3.14-17.76,17.57c-0.02,14.44,2.87,18.15,17.45,17.22c14.75,0.96,18.26-2.96,17.36-17.15
	c-0.01-0.15-0.01-0.31,0-0.47C72.81,94.17,69.68,90.49,54.9,90.51z M65.35,108.48c-0.06,10.22-0.01,10.22-10.59,10.22
	c-10.8,0-10.8,0-10.8-10.92c0-10.43,0-10.39,10.34-10.44C65.84,97.29,65.42,96.68,65.35,108.48z"/>
<path d="M96.8,90.52c-15.16,0.01-17.69,3.08-17.69,17.63c0,14.32,2.82,17.36,17.51,17.37c14.63,0,18.21-3.11,17.3-17.41
	C114.79,93.89,111.57,90.51,96.8,90.52z M96.66,118.7c-10.74,0-10.74,0-10.74-10.52c0-10.83,0-10.83,10.87-10.83
	c10.52,0,10.52,0,10.52,10.73C107.3,118.7,107.3,118.7,96.66,118.7z"/>
<path d="M138.55,90.73c-14.85-0.96-18.17,2.96-17.28,17.17c0.01,0.15,0.01,0.31,0,0.47c-0.91,13.98,2.71,17.14,17.07,17.15
	c15,0.01,17.78-3.05,17.74-17.63C156.03,94.08,153.72,89.72,138.55,90.73z M138.72,118.7c-10.83,0-10.83,0-10.83-10.89
	c0-10.46,0-10.46,10.31-10.46c0.15,0,0.31,0,0.46,0c10.61,0,10.61,0,10.61,10.63C149.27,118.7,149.27,118.7,138.72,118.7z"/>
<path d="M54.53,132.7c-14.84-1-17.33,3.24-17.38,16.79c-0.06,15.26,2.74,17.98,17.82,17.98c14.14,0,17.22-3.13,17.18-17.25
	C72.12,135.79,69.73,131.72,54.53,132.7z M54.71,160.67c-10.76,0-10.76,0-10.76-10.96c0-10.38,0-10.38,10.38-10.38
	c0.15,0,0.31,0,0.46,0c10.54,0,10.54,0,10.54,10.71C65.34,160.67,65.34,160.67,54.71,160.67z"/>
<path d="M96.89,132.7c-0.15,0.01-0.31,0.01-0.47,0c-14.56-0.93-17.32,2.84-17.32,17.33c0,14.47,2.89,17.45,17.43,17.45
	c14.67,0,18.31-2.87,17.38-17.79C114.78,136.1,111.61,131.68,96.89,132.7z M107.3,150.07c0,10.6,0,10.6-10.67,10.6
	c-10.72,0-10.72,0-10.72-10.54c0-10.81,0-10.81,10.89-10.81c10.5,0,10.5,0,10.5,10.28C107.3,149.76,107.3,149.91,107.3,150.07z"/>
<path d="M55.05,174.45c-15.42,0.01-17.92,2.92-17.91,17.88c0.01,13.9,2.86,17.87,17.3,16.91c14.92,0.94,17.73-2.79,17.7-17.46
	C72.12,177.91,69.5,174.44,55.05,174.45z M54.73,202.63c-10.78,0-10.78,0-10.78-10.94c0-10.4,0-10.4,10.36-10.4
	c0.15,0,0.31,0,0.46,0c10.56,0,10.56,0,10.56,10.69C65.34,202.63,65.34,202.63,54.73,202.63z"/>
<path d="M96.77,174.45c-15.08,0.02-17.66,3.04-17.66,17.67c0,14.25,2.79,17.34,17.55,17.33c14.57-0.01,18.17-3.08,17.26-17.45
	C114.79,177.85,111.61,174.43,96.77,174.45z M96.94,202.63c-0.15,0-0.31,0-0.46,0c-10.56,0-10.56,0-10.56-10.7
	c0-10.65,0-10.65,10.58-10.65c10.8,0,10.8,0,10.8,10.9C107.3,202.63,107.3,202.63,96.94,202.63z"/>
<g>
	<g>
		<path d="M285.78,139.47c0.67-4.97-0.26-9.09-2.76-12.25c-2.47-3.12-6.17-4.95-11-5.42l-0.33-0.03h-4.23l6.3-27.27l0.04-0.3
			c0.74-5.34-0.24-9.75-2.9-13.11c-2.62-3.31-6.58-5.24-11.77-5.73l-0.64-0.06l-0.64,0.06c-9.57,0.9-16.5,6.52-19.51,15.81
			l-0.09,0.28l-7.7,33.37l-8.42-37.89c-1.12-4.17-3.69-7.49-7.41-9.6l-0.37-0.21l-0.39-0.16c-2.61-1.08-5.26-1.62-7.85-1.62
			c-6.25,0-11.95,3.02-16.95,8.99l-0.22,0.26l-31.05,45.4l-0.13,0.23c-0.03,0.04-0.05,0.09-0.07,0.13c0.64-4.79-0.2-8.83-2.55-12.01
			c-0.33-0.44-0.68-0.86-1.05-1.26l0.38-0.27c11.69-8.29,10.54-18.11,8.81-23.23l-0.16-0.47l-0.22-0.44
			c-6.01-11.82-16.77-18.26-31.11-18.62l-0.4-0.01l-0.4,0.04c-24.66,2.26-41.12,15.61-48.94,39.68l-0.19,0.58l-0.08,0.61
			c-1.72,12.65,0.35,22.78,6.15,30.11c5.68,7.17,14.71,11.41,26.86,12.59l0.41,0.04l0.42-0.01c13.84-0.35,26.23-6.07,36.93-17.12
			c0.92-0.99,1.69-2.05,2.38-3.14c-1.34,6.59,1.08,12.44,7.07,16.39l0.64,0.42l0.72,0.27c2.36,0.88,4.73,1.33,7.04,1.33
			c6.16,0,11.69-2.99,16.42-8.89l0.16-0.2l0.12-0.18h10.56c2.62,5.92,7.62,9.27,13.96,9.27c2.2,0,4.6-0.41,7.13-1.22l0.5-0.16
			l0.47-0.24c4.01-2.01,7.06-4.63,9.2-7.68c0.48,1.11,1.08,2.14,1.83,3.09c2.62,3.32,6.58,5.24,11.77,5.73l0.32,0.03h24.19
			l0.32-0.03c8.87-0.83,15.31-6.03,18.12-14.65l0.19-0.59L285.78,139.47z M127.2,118.65c-1.92,1.74-3.82,2.64-5.96,2.83
			c-1.89-0.16-2.92-0.62-3.25-1.01c-0.35-0.41-0.64-1.54-0.49-3.51c1.73-4.54,4.45-6.68,9-7.06c2.08,0.18,2.7,0.99,3.18,1.88
			l0.2,0.33c0.68,1.1,1.43,2.08,2.26,2.96C130.42,116.02,128.77,117.22,127.2,118.65z"/>
		<path d="M305.86,123.06l-0.63-0.06l-0.64,0.06c-9.04,0.85-15.58,6.16-18.43,14.94l-0.13,0.43l-0.15,0.64l-0.04,0.35
			c-0.61,5.02,0.38,9.17,2.96,12.34c2.56,3.14,6.36,4.94,11.31,5.35l0.66,0.06l0.65-0.07c9.03-0.99,15.5-6.37,18.21-15.15l0.18-0.57
			l0.07-0.6c0.63-5.01-0.35-9.15-2.89-12.32C314.47,125.32,310.73,123.51,305.86,123.06z"/>
		<path d="M600.28,132.48l-10.05-45.26l-0.07-0.29c-1.12-4.18-3.69-7.5-7.41-9.6l-0.37-0.21l-0.39-0.16
			c-2.61-1.08-5.26-1.62-7.85-1.62c-6.25,0-11.95,3.02-16.95,8.99l-0.22,0.25l-31.05,45.4l-0.13,0.23c-0.75,1.31-1.36,2.6-1.84,3.88
			c-0.35-2.63-1.28-4.93-2.82-6.86c-2.47-3.12-6.17-4.95-11-5.42l-0.33-0.03h-4.23l6.3-27.27l0.04-0.3
			c0.74-5.34-0.24-9.75-2.9-13.11c-2.62-3.31-6.58-5.24-11.77-5.73l-0.64-0.06l-0.64,0.06c-8.23,0.77-14.48,5.05-18,12.14
			c-0.43-2.49-1.37-4.69-2.85-6.55c-2.62-3.32-6.58-5.24-11.77-5.73l-0.64-0.06l-0.64,0.06c-8.14,0.76-14.37,4.95-17.9,11.9
			c-0.47-2.29-1.39-4.32-2.77-6.06c-2.62-3.32-6.57-5.26-11.75-5.77l-0.65-0.06l-0.65,0.06c-9.57,0.9-16.5,6.52-19.51,15.82
			l-0.09,0.28l-0.88,3.82c-0.15-0.58-0.3-1.13-0.47-1.63l-0.16-0.47l-0.22-0.44C401,80.84,390.24,74.4,375.9,74.04l-0.4-0.01
			l-0.4,0.04c-24.66,2.26-41.12,15.61-48.94,39.68l-0.19,0.58l-0.08,0.61c-1.72,12.65,0.35,22.78,6.15,30.11
			c5.68,7.17,14.71,11.41,26.86,12.59l0.41,0.04l0.42-0.01c13.84-0.35,26.23-6.07,36.93-17.12c2.35-2.54,3.98-5.44,4.86-8.6
			l0.01-0.05c0.54,5.77,2.36,10.67,5.49,14.62c4.78,6.04,12.33,9.6,22.45,10.57l0.64,0.06l0.64-0.06c15.98-1.47,28.07-9,35.52-21.91
			l-0.23,1.02l-0.04,0.3c-0.74,5.34,0.24,9.75,2.9,13.11c2.62,3.32,6.58,5.24,11.77,5.73l0.32,0.03h24.19l0.32-0.03
			c8.09-0.76,14.12-5.18,17.26-12.49c0.57,4.33,3.01,8.12,7.29,10.94l0.64,0.42l0.72,0.27c2.36,0.88,4.73,1.33,7.05,1.33
			c6.16,0,11.69-2.99,16.42-8.89l0.16-0.2l0.12-0.18h10.56c2.62,5.92,7.62,9.27,13.95,9.27c2.2,0,4.6-0.41,7.13-1.22l0.5-0.16
			l0.47-0.23c9.14-4.57,13.59-12.15,12.54-21.35L600.28,132.48z M371.31,118.65c-1.92,1.74-3.82,2.64-5.96,2.83
			c-1.89-0.16-2.92-0.62-3.25-1.01c-0.35-0.41-0.64-1.54-0.49-3.51c1.73-4.54,4.45-6.68,9-7.06c2.08,0.18,2.7,0.99,3.18,1.88
			l0.2,0.33c0.68,1.1,1.43,2.08,2.26,2.96C374.53,116.02,372.88,117.22,371.31,118.65z M398.19,117.06l0.38-0.27
			c2.27-1.61,4.05-3.28,5.44-4.97l-2.14,9.28l-0.04,0.31c-0.1,0.76-0.16,1.49-0.23,2.23c-0.43-1.97-1.21-3.75-2.37-5.32
			C398.92,117.88,398.56,117.46,398.19,117.06z"/>
		<path d="M799.94,84.72c-4.26-5.38-10.93-8.54-19.84-9.4l-0.33-0.03h-19.23l-0.31,0.03c-8.89,0.8-15.32,6-18.11,14.64l-0.09,0.28
			l-3.62,15.67c-0.42-7.51-2.57-13.83-6.51-18.81c-5.6-7.07-14.51-11.24-26.48-12.4l-0.64-0.06l-0.64,0.06
			c-15.48,1.43-27.66,7.32-36.45,17.53c0.49-4.64-0.46-8.51-2.84-11.52c-2.48-3.12-6.19-4.93-11.02-5.39l-0.32-0.03h-38.73
			l-0.31,0.03c-8.89,0.8-15.32,6-18.11,14.64l-0.18,0.57l-0.08,0.59c-0.69,4.97,0.23,9.1,2.73,12.27c2.45,3.1,6.11,4.92,10.89,5.41
			l-6.49,28.09l-0.04,0.31c-0.73,5.38,0.25,9.83,2.93,13.22c2.64,3.33,6.61,5.28,11.82,5.79l0.64,0.06l0.64-0.06
			c9.7-0.9,16.7-6.58,19.73-16l0.09-0.27l7.18-31.09h2.68l0.32-0.03c3.9-0.37,7.29-1.62,10.15-3.59c-1.25,2.67-2.37,5.51-3.35,8.53
			l-0.19,0.57l-0.08,0.6c-1.71,12.45,0.31,22.42,6.02,29.64c5.59,7.07,14.5,11.25,26.48,12.4l0.64,0.06l0.64-0.06
			c20.22-1.87,34.82-11.33,43.59-28.12l-1.8,7.79l-0.04,0.31c-0.73,5.38,0.25,9.82,2.93,13.21c2.64,3.34,6.63,5.29,11.85,5.79
			l0.64,0.06l0.64-0.06c6.53-0.61,11.84-3.39,15.55-8.04l0.2,0.27c3.15,5.15,7.96,7.98,13.6,7.98c3.08,0,6.42-0.85,9.93-2.54
			l0.46-0.22l0.42-0.29c11.95-8.14,11.01-18.1,9.39-23.32l-0.11-0.36l-2-4.58c4.79-4.95,8.03-10.72,9.64-17.23l0.09-0.35l0.05-0.36
			C805.84,97.68,804.28,90.2,799.94,84.72z M702.58,114.32c-1.56,4.35-4.17,6.51-8.59,7.09c-1.5-0.22-2.31-0.63-2.56-0.94
			c-0.28-0.35-0.51-1.37-0.35-3.12c1.58-4.37,4.2-6.54,8.6-7.12c1.51,0.22,2.32,0.63,2.56,0.94
			C702.52,111.53,702.76,112.55,702.58,114.32z"/>
	</g>
	<path class="st0" d="M135.66,108.52c-1.86-3.42-4.92-5.23-9.18-5.44c-7.67,0.47-12.85,4.46-15.54,11.97
		c-0.06,0.28-0.13,0.55-0.19,0.8c-0.81,7.84,2.68,11.99,10.45,12.46c3.86-0.19,7.38-1.72,10.56-4.61c3.42-3.12,7.18-4.65,11.29-4.61
		c6.3,0.84,8.89,4.51,7.78,11.03c-0.58,2.12-1.68,4.05-3.29,5.79c-9.35,9.66-20.05,14.63-32.1,14.94
		c-20.84-2.02-29.82-13.69-26.92-35c6.93-21.33,21.29-33,43.08-35c11.91,0.3,20.32,5.27,25.21,14.9c2,5.93-0.1,11.1-6.3,15.5
		C143.84,114.61,138.89,113.7,135.66,108.52z"/>
	<path class="st0" d="M203.48,142.65l-0.65-2.93h-19.3l-2,2.93c-4.67,5.82-9.93,7.63-15.77,5.44c-5.05-3.33-5.75-8.15-2.1-14.48
		l30.71-44.91c5.17-6.17,10.83-7.98,17-5.44c2.14,1.21,3.54,3.02,4.19,5.44l9.98,44.91c0.72,6.35-2.22,11.18-8.82,14.48
		C209.87,150.28,205.46,148.46,203.48,142.65z M192.9,124.67h7.5l-1.95-7.71L192.9,124.67z"/>
	<path class="st0" d="M244.82,93.27c2.19-6.77,6.75-10.48,13.67-11.13c6.65,0.63,9.5,4.34,8.56,11.13l-8.15,35.32h12.46
		c5.94,0.58,8.5,3.91,7.68,9.98c-1.98,6.07-6.08,9.4-12.28,9.98h-23.56c-6.65-0.63-9.5-4.34-8.56-11.13L244.82,93.27z"/>
	<path class="st0" d="M292.63,140.1c2.02-6.24,6.22-9.66,12.59-10.26c6.04,0.56,8.67,3.92,7.9,10.09c-1.93,6.24-6.08,9.7-12.45,10.4
		c-6.14-0.51-8.83-3.87-8.07-10.08C292.61,140.19,292.62,140.14,292.63,140.1z"/>
	<path class="st1" d="M379.77,108.52c-1.86-3.42-4.92-5.23-9.18-5.44c-7.67,0.47-12.85,4.46-15.54,11.97
		c-0.06,0.28-0.13,0.55-0.19,0.8c-0.81,7.84,2.68,11.99,10.45,12.46c3.86-0.19,7.38-1.72,10.56-4.61c3.42-3.12,7.18-4.65,11.29-4.61
		c6.3,0.84,8.89,4.51,7.78,11.03c-0.58,2.12-1.68,4.05-3.29,5.79c-9.35,9.66-20.05,14.63-32.1,14.94
		c-20.84-2.02-29.82-13.69-26.92-35c6.93-21.33,21.29-33,43.08-35c11.91,0.3,20.32,5.27,25.21,14.9c2,5.93-0.1,11.1-6.3,15.5
		C387.95,114.61,382.99,113.7,379.77,108.52z"/>
	<path class="st1" d="M441.99,123.63l7.04-30.5c2.19-6.77,6.75-10.48,13.67-11.13c6.65,0.63,9.5,4.34,8.56,11.13l-6.74,29.21
		c-5.54,17.03-17.01,26.35-34.41,27.95c-16.68-1.6-23.86-10.92-21.53-27.95l6.73-29.14c2.19-6.77,6.75-10.48,13.67-11.13
		c6.64,0.65,9.5,4.36,8.56,11.13l-7.03,30.43c-0.46,3.49,1.02,5.4,4.44,5.72C438.51,129.02,440.86,127.12,441.99,123.63z"/>
	<path class="st1" d="M482.92,93.27c2.19-6.77,6.75-10.48,13.67-11.13c6.65,0.63,9.5,4.34,8.56,11.13L497,128.58h12.46
		c5.94,0.58,8.5,3.91,7.68,9.98c-1.98,6.07-6.08,9.4-12.28,9.98H481.3c-6.65-0.63-9.5-4.34-8.56-11.13L482.92,93.27z"/>
	<path class="st1" d="M571.51,142.65l-0.65-2.93h-19.3l-2,2.93c-4.67,5.82-9.93,7.63-15.77,5.44c-5.05-3.33-5.75-8.15-2.1-14.48
		l30.71-44.91c5.17-6.17,10.83-7.98,17-5.44c2.14,1.21,3.54,3.02,4.19,5.44l9.98,44.91c0.72,6.35-2.22,11.18-8.82,14.48
		C577.9,150.28,573.49,148.46,571.51,142.65z M560.93,124.67h7.5l-1.95-7.71L560.93,124.67z"/>
	<path class="st1" d="M640.8,102.02l-8.33,36.08c-2.22,6.89-6.85,10.66-13.88,11.31c-6.71-0.65-9.6-4.42-8.66-11.31l8.33-36.08
		h-7.78c-5.94-0.58-8.48-3.91-7.64-9.98c1.96-6.07,6.04-9.39,12.24-9.95h38.11c5.94,0.56,8.5,3.87,7.68,9.95
		c-1.98,6.07-6.08,9.4-12.28,9.98H640.8z"/>
	<path class="st1" d="M688.9,150.18c-20.48-1.98-29.29-13.42-26.41-34.34c6.79-20.94,20.88-32.4,42.27-34.37
		c20.48,1.98,29.3,13.44,26.44,34.37C724.4,136.76,710.3,148.21,688.9,150.18z M693.96,128.27c7.75-0.72,12.85-4.86,15.29-12.42
		c1.05-7.58-2.13-11.74-9.55-12.46c-7.73,0.72-12.83,4.87-15.3,12.46C683.38,123.4,686.57,127.55,693.96,128.27z"/>
	<path class="st1" d="M790.4,131.83c1.9,6.1-0.34,11.32-6.72,15.67c-6.83,3.28-11.8,2.24-14.92-3.11l-0.03-0.04l-6.3-14.45
		l-1.84,7.96c-2.24,6.89-6.87,10.66-13.88,11.31c-6.74-0.65-9.64-4.42-8.7-11.31l10.58-45.82c1.96-6.07,6.04-9.39,12.24-9.95h18.6
		c14.25,1.37,20.38,9.34,18.38,23.9c-1.66,6.7-5.4,12.41-11.21,17.13L790.4,131.83z M768.72,102.69l-1.68,7.29h3.63
		c2.28-0.21,3.78-1.42,4.5-3.63c0.31-2.23-0.63-3.45-2.82-3.66H768.72z"/>
</g>
<path d="M317.5,167.94l-0.64-0.06l-0.64,0.06c-5.28,0.5-9.58,2.39-12.71,5.46c-2.56-2.94-6.23-4.81-10.81-5.24l-0.32-0.03h-7.29
	l-0.32,0.03c-2.78,0.27-5.12,1.42-6.82,3.21c-3.16-2.31-6.92-3.58-11.12-3.69l-0.4-0.01l-0.4,0.04c-6.55,0.61-11.61,3.35-14.83,7.81
	l-0.57-1.27c-1.09-2.19-2.83-3.92-5.03-5l-0.3-0.15l-0.31-0.12c-1.47-0.55-2.94-0.83-4.37-0.83c-3.9,0-7.26,1.99-9.46,5.6
	l-0.22,0.35l-2.08,4.6l-0.24-1.45c-0.64-3.39-2.67-6.14-5.74-7.72l-0.35-0.18l-0.37-0.14c-1.44-0.55-2.88-0.82-4.29-0.82
	c-2.81,0-5.4,1.11-7.41,3.12c-1.53-1.53-3.49-2.56-5.73-2.98l-0.4-0.08l-0.41-0.03c-0.3-0.02-0.6-0.03-0.89-0.03
	c-5.27,0-9.37,3.23-10.71,8.42l-0.08,0.3l-2.7,16.56l-0.02,0.33c-0.37,5.7,2.83,10.14,8.36,11.59l0.62,0.16l0.64,0.04
	c0.32,0.02,0.63,0.03,0.93,0.03c1.98,0,3.8-0.46,5.36-1.31c1.35,0.64,2.86,1.02,4.49,1.11l0.18,0.01l0.79-0.01
	c1.64-0.09,3.15-0.47,4.5-1.11c1.57,0.85,3.39,1.31,5.37,1.31c0.29,0,0.58-0.01,0.89-0.03l0.64-0.04l0.62-0.16
	c1.6-0.41,2.97-1.09,4.15-1.96c0.39,0.28,0.77,0.57,1.2,0.81l0.54,0.31l0.59,0.21c1.34,0.47,2.69,0.7,3.99,0.7
	c2.81,0,5.38-1.09,7.36-3.08c1.99,1.99,4.56,3.08,7.38,3.08c1.28,0,2.6-0.23,3.92-0.68l0.61-0.21l0.56-0.32
	c0.88-0.5,1.63-1.1,2.32-1.73c2.85,1.96,6.38,3.18,10.49,3.57l0.4,0.04l0.4-0.01c4.29-0.1,8.11-1.42,11.33-3.86
	c1.77,1.81,4.2,2.95,7.11,3.23l0.64,0.06l0.64-0.06c1.76-0.17,3.34-0.65,4.71-1.41c1.64,0.99,3.46,1.51,5.36,1.51
	c1.88,0,3.75-0.5,5.58-1.49l0.56-0.3l0.49-0.4c0.66-0.54,1.23-1.12,1.74-1.73c2.96,2.31,6.75,3.76,11.25,4.18l0.63,0.06l0.63-0.06
	c10.7-1,17.42-7.71,18.43-18.41l0.06-0.64l-0.06-0.64C334.92,175.67,328.2,168.95,317.5,167.94z"/>
<path d="M368.25,184.24c0.78-2.46,0.58-5.2-0.67-7.91l-0.13-0.28l-0.15-0.27c-0.86-1.49-1.96-2.83-3.26-3.96l-0.24-0.21l-0.26-0.18
	c-3.13-2.24-6.39-3.38-9.69-3.38c-4.01,0-7.75,1.63-11.12,4.85l-0.38,0.36l-0.32,0.42c-2.81,3.66-3.69,7.82-2.63,11.89
	c-1.07,2.48-1.38,5.25-0.87,8.13c0.27,1.35,0.71,2.66,1.33,3.9l0.14,0.28l0.17,0.27c3.21,5.18,7.96,8.04,13.37,8.04
	c1.24,0,2.51-0.15,3.81-0.45c1.01,0.3,2.04,0.45,3.06,0.45c2.59,0,5.05-0.96,7.11-2.77l0.36-0.32l0.31-0.37
	c2.77-3.24,3.5-7.12,2.16-10.71C370.72,189.15,369.98,186.43,368.25,184.24z"/>
<path d="M781.5,189.61c0.81-1.86,1.24-3.87,1.28-6l0.01-0.38l-0.04-0.38c-0.79-8.4-6.28-13.89-14.68-14.69l-0.32-0.03h-7.29
	l-0.32,0.03c-3.17,0.3-5.77,1.77-7.49,4.01c-2.97-2.35-6.78-3.81-11.31-4.24l-0.64-0.06l-0.64,0.06c-4,0.38-7.44,1.55-10.23,3.43
	c-1.69-1.79-4.04-2.94-6.87-3.21l-0.32-0.03h-14.27l-0.32,0.03c-2.59,0.25-4.79,1.27-6.46,2.85c-0.76-0.69-1.6-1.29-2.54-1.76
	l-0.3-0.15l-0.31-0.12c-1.47-0.55-2.94-0.83-4.37-0.83c-3.9,0-7.26,1.99-9.46,5.6l-0.22,0.35l-5.28,11.66
	c-0.62-0.28-1.27-0.53-1.96-0.7v-6.45l-0.03-0.31c-0.53-5.71-4.41-9.59-10.13-10.12l-0.63-0.06l-0.63,0.06
	c-2.05,0.19-3.86,0.83-5.37,1.82c-1.53-1.03-3.38-1.69-5.49-1.88l-0.64-0.06l-0.64,0.06c-2.06,0.2-3.88,0.83-5.39,1.83
	c-1.51-0.98-3.33-1.6-5.38-1.79l-0.63-0.06l-0.63,0.06c-2.94,0.27-5.37,1.44-7.13,3.28c-3.18-2.35-6.96-3.65-11.2-3.75l-0.4-0.01
	l-0.4,0.04c-7.3,0.68-12.75,4-15.85,9.39c-0.94-5.04-4.62-8.43-9.92-8.92l-0.63-0.06l-0.63,0.06c-3.87,0.36-6.86,2.29-8.58,5.25
	c-1.09-1.79-2.63-3.24-4.53-4.18l-0.3-0.15l-0.31-0.12c-1.47-0.55-2.94-0.83-4.37-0.83c-3.9,0-7.26,1.99-9.46,5.6l-0.22,0.35
	l-0.99,2.18l-0.1-0.18l-0.24-0.32c-3.79-5.14-9.17-7.95-15.55-8.1l-0.4-0.01l-0.4,0.04c-10.84,1.02-17.64,7.82-18.65,18.65
	l-0.06,0.64l0.06,0.64c1.03,10.83,7.83,17.63,18.65,18.65l0.4,0.04l0.4-0.01c4.36-0.1,8.24-1.47,11.51-3.99
	c0.77,0.79,1.65,1.51,2.71,2.11l0.54,0.31l0.59,0.21c1.34,0.47,2.69,0.7,3.99,0.7c2.81,0,5.38-1.09,7.36-3.08
	c1.99,1.99,4.56,3.08,7.38,3.08c1.28,0,2.6-0.23,3.92-0.68l0.61-0.21l0.56-0.32c0.26-0.15,0.47-0.32,0.71-0.48
	c1.39,0.79,2.99,1.33,4.79,1.5l0.32,0.03h9.06l0.32-0.03c2.68-0.26,4.93-1.29,6.6-2.92c2.89,2.05,6.5,3.34,10.72,3.74l0.4,0.04
	l0.4-0.01c5.05-0.12,9.45-1.92,12.99-5.25c2.77,2.84,6.62,4.59,11.39,5.03l0.63,0.06l0.63-0.06c3.98-0.37,7.28-1.69,9.88-3.75
	c1.75,1.75,4.15,2.86,7,3.12l0.32,0.03h9.06l0.32-0.03c1.98-0.19,3.73-0.81,5.18-1.78c0.36,0.25,0.7,0.52,1.1,0.74l0.54,0.31
	l0.59,0.21c1.34,0.47,2.69,0.7,3.99,0.7c2.81,0,5.38-1.09,7.36-3.08c1.99,1.99,4.56,3.08,7.38,3.08c1.28,0,2.6-0.23,3.92-0.68
	l0.61-0.21l0.56-0.32c0.67-0.38,1.27-0.81,1.83-1.27c1.69,1.42,3.83,2.35,6.37,2.59l0.64,0.06l0.64-0.06
	c4.66-0.44,8.07-3.12,9.48-7.17c3.18,4.24,8.11,6.85,14.45,7.45l0.63,0.06l0.63-0.06c4.64-0.43,8.53-1.94,11.53-4.39
	c1.8,2.25,4.46,3.71,7.77,4.02l0.64,0.06l0.64-0.06c1.76-0.17,3.34-0.65,4.71-1.41c1.64,0.99,3.46,1.51,5.36,1.51
	c1.88,0,3.75-0.5,5.58-1.49l0.56-0.3l0.49-0.4C783.07,200,784.17,194.65,781.5,189.61z"/>
<path class="st1" d="M210.28,198.82c-2.01-0.11-3.38-1.1-4.1-2.98l-1.37-4.15l-0.65,4.03c-0.62,2.35-2.14,3.45-4.57,3.28
	c-2.35-0.62-3.45-2.13-3.29-4.55l2.59-15.93c0.61-2.35,2.13-3.45,4.57-3.29c1.33,0.25,2.31,0.98,2.93,2.18l4,7.97l4.02-7.97
	c1.26-2.08,3.03-2.69,5.31-1.82c1.21,0.63,1.93,1.6,2.18,2.93l2.59,15.93c0.16,2.43-0.94,3.95-3.31,4.55
	c-2.42,0.16-3.94-0.94-4.55-3.28l-0.65-4.03l-1.37,4.15c-0.72,1.88-2.09,2.87-4.1,2.98H210.28z"/>
<path class="st1" d="M244.65,196.58l-0.47-1.05h-6.9l-0.47,1.05c-1.19,2.09-2.92,2.74-5.19,1.94c-2.08-1.19-2.73-2.91-1.95-5.18
	l7.27-16.05c1.34-2.2,3.21-2.84,5.63-1.94c0.86,0.43,1.51,1.07,1.95,1.94l7.27,16.05c0.78,2.27,0.13,4-1.96,5.19
	C247.57,199.31,245.84,198.66,244.65,196.58z M239.39,190.16h2.68l-1.33-2.74L239.39,190.16z"/>
<path class="st1" d="M270.37,184.38c-0.95-1.21-2.19-1.86-3.73-1.95c-2.7,0.17-4.22,1.59-4.57,4.28c0,0.1,0,0.2,0,0.29
	c0.36,2.8,1.95,4.29,4.76,4.46c1.36-0.07,2.49-0.63,3.39-1.66c0.96-1.11,2.18-1.66,3.65-1.63c2.32,0.29,3.55,1.6,3.69,3.94
	c-0.03,0.76-0.27,1.44-0.7,2.06c-2.54,3.46-5.96,5.24-10.24,5.34c-7.62-0.72-11.79-4.89-12.51-12.51
	c0.71-7.63,4.89-11.8,12.51-12.51c4.28,0.11,7.7,1.89,10.24,5.34c1.21,2.11,0.88,3.95-0.97,5.53
	C273.8,186.56,271.95,186.24,270.37,184.38z"/>
<path class="st1" d="M300.07,192.73c1.17,2.17,0.8,4.03-1.12,5.59c-2.17,1.17-4.03,0.8-5.59-1.11l-3.44-5.18v2.84
	c-0.23,2.46-1.58,3.81-4.03,4.04c-2.46-0.23-3.81-1.58-4.04-4.03v-0.01v-16.37c0.2-2.17,1.38-3.36,3.56-3.57h6.65
	c5.21,0.49,8.05,3.34,8.55,8.55c-0.04,2.39-0.91,4.44-2.59,6.12L300.07,192.73z M289.92,182.3v2.61h1.3c0.8-0.07,1.23-0.51,1.31-1.3
	c-0.08-0.8-0.51-1.23-1.31-1.31H289.92z"/>
<path class="st1" d="M316.86,199.28c-7.48-0.7-11.58-4.79-12.27-12.27c0.7-7.49,4.79-11.58,12.27-12.29
	c7.48,0.71,11.58,4.8,12.29,12.29C328.44,194.49,324.35,198.58,316.86,199.28z M316.86,191.44c2.71-0.26,4.19-1.74,4.44-4.44
	c-0.25-2.71-1.73-4.19-4.44-4.44c-2.7,0.25-4.18,1.73-4.44,4.44C312.68,189.71,314.16,191.19,316.86,191.44z"/>
<path class="st1" d="M357.71,198.53c-5.01,1.93-8.94,0.61-11.76-3.95c-0.35-0.7-0.6-1.43-0.75-2.18c-0.42-2.36,0.19-4.43,1.81-6.2
	c-1.79-2.89-1.65-5.67,0.41-8.36c3.82-3.64,7.87-3.93,12.15-0.86c0.73,0.63,1.34,1.37,1.82,2.21c0.97,2.11,0.51,3.84-1.4,5.19
	c-2.12,0.97-3.85,0.51-5.2-1.4c-0.03-0.03-0.05-0.07-0.06-0.11c-0.37-0.56-0.86-0.71-1.47-0.45c-0.56,0.37-0.71,0.86-0.45,1.47
	c0.17,0.3,0.42,0.48,0.75,0.55c1.61,0.47,2.34,1.54,2.17,3.22c-0.05,0.25-0.13,0.49-0.24,0.71c-0.33,0.6-0.84,0.91-1.52,0.92
	c-0.69,0.07-1.07,0.44-1.15,1.13c0.07,0.7,0.45,1.08,1.14,1.15c0.3,0,0.56-0.1,0.77-0.3c0.79-0.71,1.45-1.53,1.98-2.44
	c1.32-1.85,3.02-2.31,5.09-1.36c1.61,1.09,2.16,2.57,1.63,4.45l-0.35,1c1.47,1.82,1.45,3.62-0.08,5.4
	c-1.31,1.15-2.77,1.38-4.37,0.67L357.71,198.53z"/>
<path class="st1" d="M554.24,184.38c-0.95-1.21-2.19-1.86-3.73-1.95c-2.7,0.17-4.22,1.59-4.57,4.28c0,0.1,0,0.2,0,0.29
	c0.36,2.8,1.95,4.29,4.76,4.46c1.36-0.07,2.49-0.63,3.39-1.66c0.96-1.11,2.18-1.66,3.65-1.63c2.32,0.29,3.55,1.6,3.69,3.94
	c-0.03,0.76-0.27,1.44-0.7,2.06c-2.54,3.46-5.96,5.24-10.24,5.34c-7.62-0.72-11.79-4.89-12.51-12.51
	c0.71-7.63,4.89-11.8,12.51-12.51c4.28,0.11,7.7,1.89,10.24,5.34c1.21,2.11,0.88,3.95-0.97,5.53
	C557.67,186.56,555.82,186.24,554.24,184.38z"/>
<path class="st1" d="M581.3,196.58l-0.47-1.05h-6.9l-0.47,1.05c-1.19,2.09-2.92,2.74-5.19,1.94c-2.08-1.19-2.73-2.91-1.95-5.18
	l7.27-16.05c1.34-2.2,3.21-2.84,5.63-1.94c0.86,0.43,1.51,1.07,1.95,1.94l7.27,16.05c0.78,2.27,0.13,4-1.96,5.19
	C584.21,199.31,582.49,198.66,581.3,196.58z M576.04,190.16h2.68l-1.33-2.74L576.04,190.16z"/>
<path class="st1" d="M592,178.93c0.22-2.42,1.55-3.74,3.97-3.97c2.43,0.23,3.75,1.55,3.98,3.97v12.63h4.45
	c2.17,0.2,3.36,1.39,3.57,3.56c-0.21,2.17-1.4,3.36-3.57,3.57h-8.42c-2.42-0.23-3.75-1.55-3.98-3.97V178.93z"/>
<path class="st1" d="M626.74,184.38c-0.95-1.21-2.19-1.86-3.73-1.95c-2.7,0.17-4.22,1.59-4.57,4.28c0,0.1,0,0.2,0,0.29
	c0.36,2.8,1.95,4.29,4.76,4.46c1.36-0.07,2.49-0.63,3.39-1.66c0.96-1.11,2.18-1.66,3.65-1.63c2.32,0.29,3.55,1.6,3.69,3.94
	c-0.03,0.76-0.27,1.44-0.7,2.06c-2.54,3.46-5.96,5.24-10.24,5.34c-7.62-0.72-11.79-4.89-12.51-12.51
	c0.71-7.63,4.89-11.8,12.51-12.51c4.28,0.11,7.7,1.89,10.24,5.34c1.21,2.11,0.88,3.95-0.97,5.53
	C630.17,186.56,628.32,186.24,626.74,184.38z"/>
<path class="st1" d="M650.23,189.79v-10.9c0.23-2.42,1.55-3.75,3.97-3.98c2.43,0.23,3.75,1.55,3.98,3.98v10.44
	c-0.57,6.1-3.9,9.43-9.99,9.99c-6.1-0.57-9.43-3.9-10-9.99v-10.4c0.22-2.43,1.55-3.75,3.97-3.98c2.43,0.22,3.75,1.55,3.98,3.97v0.01
	v10.87c0.13,1.25,0.81,1.93,2.06,2.06C649.43,191.72,650.11,191.03,650.23,189.79z"/>
<path class="st1" d="M662.35,178.93c0.22-2.42,1.55-3.74,3.97-3.97c2.43,0.23,3.75,1.55,3.98,3.97v12.63h4.45
	c2.17,0.2,3.36,1.39,3.57,3.56c-0.21,2.17-1.4,3.36-3.57,3.57h-8.42c-2.42-0.23-3.75-1.55-3.98-3.97V178.93z"/>
<path class="st1" d="M698.09,196.58l-0.47-1.05h-6.9l-0.47,1.05c-1.19,2.09-2.92,2.74-5.19,1.94c-2.08-1.19-2.73-2.91-1.95-5.18
	l7.27-16.05c1.34-2.2,3.21-2.84,5.63-1.94c0.86,0.43,1.51,1.07,1.95,1.94l7.27,16.05c0.78,2.27,0.13,4-1.96,5.19
	C701,199.31,699.28,198.66,698.09,196.58z M692.83,190.16h2.68l-1.33-2.74L692.83,190.16z"/>
<path class="st1" d="M719.51,182.06v12.91c-0.22,2.45-1.57,3.79-4.03,4.03c-2.45-0.23-3.8-1.58-4.03-4.03v-12.91h-2.78
	c-2.17-0.2-3.36-1.38-3.56-3.55c0.2-2.17,1.38-3.36,3.56-3.57h13.62c2.17,0.21,3.36,1.4,3.57,3.57c-0.21,2.17-1.4,3.35-3.57,3.55
	H719.51z"/>
<path class="st1" d="M740.69,199.28c-7.48-0.7-11.58-4.79-12.27-12.27c0.7-7.49,4.79-11.58,12.27-12.29
	c7.48,0.71,11.58,4.8,12.29,12.29C752.27,194.49,748.17,198.58,740.69,199.28z M740.69,191.44c2.71-0.26,4.19-1.74,4.44-4.44
	c-0.25-2.71-1.73-4.19-4.44-4.44c-2.7,0.25-4.18,1.73-4.44,4.44C736.5,189.71,737.98,191.19,740.69,191.44z"/>
<path class="st1" d="M775.45,192.73c1.17,2.17,0.8,4.03-1.12,5.59c-2.17,1.17-4.03,0.8-5.59-1.11l-3.44-5.18v2.84
	c-0.23,2.46-1.58,3.81-4.03,4.04c-2.46-0.23-3.81-1.58-4.04-4.03v-0.01v-16.37c0.2-2.17,1.38-3.36,3.56-3.57h6.65
	c5.21,0.49,8.05,3.34,8.55,8.55c-0.04,2.39-0.91,4.44-2.59,6.12L775.45,192.73z M765.3,182.3v2.61h1.3c0.8-0.07,1.23-0.51,1.31-1.3
	c-0.08-0.8-0.51-1.23-1.31-1.31H765.3z"/>
<polygon points="238.25,190.65 242.82,190.65 240.55,185.97 "/>
<polygon points="575.12,190.65 579.7,190.65 577.42,185.97 "/>
<polygon points="691.96,190.65 696.54,190.65 694.26,185.97 "/>
<path d="M765.03,181.5v4.05h2.01c1.24-0.11,1.92-0.79,2.04-2.01c-0.12-1.24-0.8-1.92-2.04-2.04H765.03z"/>
<g>
	<path d="M523.67,192.5c-0.23-1.23-0.73-2.41-1.48-3.5l-0.06-0.09c0,0-0.32-0.42-0.45-0.58c0.17-0.53,0.29-1.08,0.37-1.65
		c0.11-0.87,0.09-1.76-0.05-2.65c-0.07-0.4-0.17-0.8-0.29-1.2c0.47-0.62,0.87-1.26,1.2-1.92c0.7-1.39,1.02-2.95,0.96-4.62
		c-0.06-1.61-0.45-3.09-1.14-4.42c-0.74-1.38-1.78-2.56-3.07-3.48c-1.29-0.94-2.74-1.53-4.27-1.76c-0.67-0.1-1.36-0.16-2.05-0.16
		c-0.19,0-0.39,0.01-0.59,0.01c-0.44,0.01-0.87,0.03-1.29,0.07c-0.14-0.01-0.8-0.06-0.8-0.06h-0.27c-0.21,0-0.42,0.01-0.62,0.02
		c-0.24-0.02-0.49-0.03-0.74-0.03c-0.41,0-0.82,0.03-1.23,0.09l-0.2-0.02c-0.4-0.04-0.79-0.06-1.17-0.06
		c-1.57,0-3.05,0.33-4.41,0.93c-0.93-0.45-1.91-0.81-2.98-0.97c-0.56-0.09-1.12-0.14-1.67-0.14c-2.18,0-4.2,0.73-5.97,2.11
		c-0.28-0.17-0.54-0.38-0.84-0.53c-1.51-0.76-3.14-1.24-5-1.46c-0.77-0.07-1.55-0.11-2.32-0.11c-0.41,0-0.83-0.01-1.24-0.03
		l-7.08-0.29v1.15c-1.05,0.4-2,1-2.85,1.74c-0.38-0.27-0.77-0.56-1.14-0.8c-0.81-0.54-1.7-1-2.56-1.36
		c-1.12-0.47-2.27-0.85-3.39-1.1c-1.09-0.25-2.23-0.38-3.37-0.38c-0.34,0-0.69,0.01-0.95,0.03c-0.69,0.04-1.36,0.1-2.05,0.2
		c-1.07,0.15-2.11,0.44-3.11,0.88c-0.65,0.25-1.27,0.53-1.84,0.81c-0.84,0.42-1.67,0.95-2.34,1.48c-0.66,0.49-1.28,1.01-1.86,1.57
		c-0.51,0.49-1.03,1.02-1.54,1.59l-0.12,0.13l-0.92,1.15l-0.54,0.99c-0.01,0.01-0.01,0.02-0.02,0.02c-0.04-0.15-0.04-0.31-0.08-0.46
		c-0.35-1.23-0.93-2.36-1.71-3.35c-0.79-1-1.75-1.83-2.9-2.51c-1.15-0.66-2.41-1.09-3.7-1.28c-0.51-0.08-1.01-0.11-1.52-0.11
		c-0.96,0-1.91,0.13-2.83,0.4c-0.56,0.15-1.12,0.36-1.63,0.6c-1,0.46-1.89,1.11-2.64,1.92l-0.15,0.17c-0.26,0.3-0.51,0.62-0.75,0.94
		c-0.06-0.08-0.1-0.18-0.16-0.26c-0.82-1.03-1.86-1.84-3.15-2.45c-0.47-0.21-0.92-0.39-1.36-0.56c-0.98-0.35-2.03-0.54-3.11-0.55
		l-0.38-0.01c-1.27,0-2.49,0.22-3.68,0.68c-0.95,0.37-1.85,0.88-2.68,1.51l-0.25,0.19l-0.23,0.21c-0.27,0.24-0.55,0.52-0.84,0.84
		c-0.55,0.6-0.99,1.28-1.33,2c-1.12-1.34-2.35-2.54-3.59-3.48c-0.88-0.7-1.82-1.29-2.75-1.73c-0.71-0.34-1.43-0.64-2.16-0.9
		l-0.37-0.12c-1.51-0.45-3.07-0.67-4.64-0.67c-0.39,0-0.78,0.01-1.17,0.04h-0.36c-1.02,0-2.02,0.16-2.86,0.45
		c-0.22,0.07-0.45,0.14-0.75,0.21c-1.19,0.3-2.3,0.8-3.3,1.49c-0.84,0.42-1.65,0.91-2.41,1.45c-1.08,0.76-2.03,1.68-2.83,2.74
		c-0.23,0.29-0.46,0.58-0.66,0.87l-0.58,0.83c0,0-0.56,0.91-0.78,1.29c-0.4,0.67-0.74,1.42-1,2.18l-0.34,0.97
		c-0.44,1.18-0.77,2.41-0.97,3.65c-0.19,1.17-0.29,2.45-0.29,3.82c0,0.7,0.05,1.54,0.17,2.54c0.13,1.12,0.35,2.18,0.65,3.06
		c0.4,1.28,0.86,2.53,1.35,3.69c0.67,1.58,1.59,3.03,2.74,4.31c0.35,0.41,0.69,0.77,1.01,1.05l0.5,0.46
		c0.85,0.82,1.81,1.51,2.83,2.06c0.43,0.23,0.84,0.46,1.38,0.78c1.14,0.64,2.34,1.08,3.58,1.31l0.83,0.19
		c0.87,0.2,1.77,0.3,2.69,0.3h0.26l0.26-0.02c0.2-0.01,0.39-0.02,0.57-0.02c0.85,0,1.72-0.09,2.59-0.27l0.34-0.08
		c0.84-0.22,1.66-0.48,2.5-0.8c0.92-0.35,1.8-0.82,2.62-1.39c1.73,1.62,3.96,2.55,6.41,2.55l5.12,0l1.08-1.55l0.07-0.05
		c0.5-0.33,0.97-0.7,1.39-1.11c0.08,0.08,0.17,0.16,0.25,0.24c0.96,0.88,2.07,1.53,3.34,1.95c1.08,0.35,2.2,0.53,3.31,0.53
		l0.34-0.01c0.62-0.02,1.25-0.07,1.89-0.15l1.28-0.17l1.12-0.59c0.07-0.04,0.14-0.09,0.21-0.13c1.21,0.55,2.56,0.91,4.05,1.02
		c0.44,0.02,0.88,0.03,1.31,0.03c0.23,0,1.45-0.02,1.86-0.02l5.13-0.01c1.59-0.07,3.09-0.44,4.44-1.1c0.8-0.39,1.78-1.03,2.69-2.05
		c0.71,0.49,1.44,0.94,2.17,1.29c0.61,0.3,1.22,0.58,1.82,0.86l1.63,0.69h0.85c1.21,0.22,2.44,0.33,3.68,0.33
		c0.59,0,1.18-0.02,1.77-0.07c0.65-0.04,1.31-0.17,2-0.38c0,0,0.7-0.24,0.95-0.33l0.16-0.03l0.33-0.1c1.63-0.5,3.15-1.28,4.47-2.2
		c0.1,0.11,0.19,0.24,0.3,0.35c1,1.04,2.28,1.8,3.72,2.22c1.21,0.38,2.41,0.58,3.58,0.58h0.2l0.2-0.01
		c1.59-0.09,3.08-0.51,4.39-1.24c0.95,0.5,1.99,0.85,3.1,1.04l0.29,0.04c0.46,0.06,0.92,0.09,1.37,0.09c1.41,0,2.78-0.27,4.25-0.88
		c0.08-0.03,0.16-0.08,0.24-0.12c1.42,0.69,2.96,1.07,4.52,1.07c1.51,0,2.97-0.34,4.36-0.98c1.3,0.6,2.72,0.94,4.22,0.96
		c0.68,0.03,1.37,0.04,2.05,0.04h1.92l6.7-0.08v-0.39c2.07-0.55,3.84-1.73,5.05-3.38c0.57-0.76,1.05-1.59,1.42-2.47
		c0.5-1.2,0.73-2.48,0.68-3.8C523.88,194,523.81,193.23,523.67,192.5z"/>
	<path class="st1" d="M386.06,185.15c0-1.07,0.07-2.04,0.21-2.91c0.14-0.87,0.37-1.73,0.68-2.56l0.38-1.09
		c0.14-0.42,0.31-0.8,0.51-1.13c0.2-0.34,0.41-0.69,0.64-1.06c0.14-0.21,0.29-0.42,0.45-0.64s0.32-0.44,0.49-0.65
		c0.42-0.57,0.92-1.05,1.47-1.45c0.55-0.39,1.13-0.73,1.73-1.02c0.23-0.1,0.38-0.2,0.47-0.27c0.37-0.29,0.77-0.48,1.19-0.59
		c0.43-0.1,0.84-0.22,1.24-0.35c0.23-0.08,0.47-0.11,0.72-0.1c0.25,0.01,0.51,0.01,0.77-0.02c1.11-0.08,2.19,0.04,3.24,0.35
		c0.51,0.18,1.01,0.39,1.51,0.63c0.5,0.23,0.97,0.53,1.43,0.9c1.14,0.86,2.16,1.88,3.07,3.05c0.23,0.29,0.43,0.59,0.6,0.9
		c0.17,0.31,0.33,0.65,0.47,1.02c0.06,0.21,0.09,0.42,0.11,0.63c0.01,0.21,0.02,0.42,0.02,0.63c0.03,0.39,0.01,0.77-0.04,1.13
		c-0.06,0.37-0.17,0.73-0.34,1.09c-0.25,0.63-0.61,1.08-1.06,1.37c-1.14,0.86-2.33,0.99-3.58,0.39c-0.34-0.18-0.65-0.44-0.94-0.78
		c-0.23-0.36-0.46-0.69-0.68-0.98c-0.31-0.47-0.64-0.87-0.98-1.21c-0.2-0.18-0.42-0.31-0.66-0.37c-0.24-0.07-0.47-0.12-0.7-0.17
		c-0.28-0.05-0.57-0.08-0.85-0.08s-0.58,0.01-0.89,0.04c-0.23,0-0.45,0.05-0.66,0.16c-0.21,0.1-0.43,0.22-0.66,0.35
		c-0.97,0.7-1.65,1.71-2.04,3.01c-0.14,0.47-0.21,0.99-0.21,1.56s0.07,1.09,0.21,1.56c0.09,0.26,0.17,0.52,0.26,0.76
		c0.08,0.25,0.18,0.49,0.3,0.72c0.31,0.65,0.7,1.16,1.17,1.52c0.47,0.37,1,0.64,1.6,0.82c0.43,0.1,0.83,0.13,1.21,0.08
		c0.38-0.05,0.77-0.14,1.17-0.27c0.34-0.13,0.64-0.32,0.92-0.59c0.27-0.26,0.52-0.53,0.75-0.82c0.06-0.1,0.12-0.21,0.19-0.31
		c0.07-0.1,0.15-0.21,0.23-0.31c0.71-1.17,1.7-1.72,2.98-1.64c0.91,0.03,1.72,0.43,2.43,1.21c0.23,0.29,0.42,0.58,0.58,0.88
		c0.16,0.3,0.26,0.65,0.32,1.04l0.17,0.98c0.06,0.26,0,0.48-0.17,0.66c-0.11,0.1-0.13,0.22-0.04,0.35c0.06,0.18,0.04,0.39-0.04,0.63
		c-0.06,0.13-0.11,0.25-0.17,0.35c-0.06,0.1-0.11,0.21-0.17,0.31c-0.4,0.68-0.84,1.29-1.34,1.84c-0.5,0.55-1.03,1.04-1.6,1.49
		c-0.2,0.16-0.4,0.31-0.6,0.47c-0.2,0.16-0.41,0.26-0.64,0.31l-0.17,0.08c-0.51,0.44-1.06,0.78-1.64,1s-1.17,0.41-1.77,0.57
		c-0.37,0.08-0.73,0.12-1.09,0.12c-0.36,0-0.72,0.01-1.09,0.04c-0.37,0-0.72-0.04-1.06-0.12c-0.34-0.08-0.68-0.16-1.02-0.23
		c-0.51-0.08-1.02-0.26-1.53-0.55c-0.48-0.29-0.98-0.57-1.49-0.84c-0.51-0.27-0.98-0.62-1.41-1.04c-0.2-0.18-0.38-0.35-0.55-0.51
		c-0.17-0.16-0.34-0.34-0.51-0.55c-0.74-0.81-1.32-1.71-1.75-2.72c-0.43-1-0.81-2.05-1.15-3.15c-0.2-0.6-0.34-1.27-0.42-2.01
		C386.1,186.3,386.06,185.67,386.06,185.15z M392.19,195.31l0.17-0.35c0-0.21-0.13-0.31-0.38-0.31c-0.17,0.05-0.25,0.14-0.25,0.27
		C391.72,195.18,391.88,195.31,392.19,195.31z M404.29,179.25l-0.09-0.12c-0.03,0.03-0.04,0.05-0.04,0.08s-0.02,0.04-0.04,0.04
		c0,0.05,0.01,0.09,0.04,0.1c0.03,0.01,0.04,0.03,0.04,0.06L404.29,179.25z M405.6,190.15h0.04c0-0.03-0.01-0.04-0.02-0.04
		c-0.02,0-0.02-0.01-0.02-0.04V190.15z"/>
	<path class="st1" d="M416.89,195.39c-0.26,0.52-0.51,1.05-0.77,1.58c-0.25,0.53-0.64,0.97-1.15,1.31c-0.14,0-0.31-0.04-0.51-0.12
		l-0.38,0.55h-1.36c-0.74,0.03-1.37-0.25-1.89-0.82c-0.53-0.57-0.87-1.2-1.04-1.88c-0.14-0.52-0.21-0.92-0.21-1.19
		s0.07-0.67,0.21-1.19c0.08-0.26,0.16-0.53,0.23-0.8c0.07-0.27,0.18-0.53,0.32-0.76c0.06-0.08,0.08-0.16,0.08-0.23
		s0.03-0.17,0.08-0.27c0.2-0.52,0.41-1.06,0.62-1.6c0.21-0.55,0.4-1.09,0.58-1.64c0.31-0.89,0.65-1.75,1.02-2.6
		c0.37-0.85,0.71-1.7,1.02-2.56c0.23-0.55,0.45-1.09,0.68-1.62c0.23-0.53,0.45-1.06,0.68-1.58l0.25-0.74
		c0.57-1.62,1.21-3.17,1.92-4.65c0.08-0.21,0.21-0.4,0.36-0.57s0.31-0.32,0.45-0.45c0.34-0.26,0.69-0.46,1.06-0.61
		c0.37-0.14,0.78-0.2,1.24-0.17c0.31,0,0.6,0.04,0.85,0.14c0.25,0.09,0.53,0.2,0.81,0.33c0.28,0.13,0.53,0.32,0.72,0.57
		c0.2,0.25,0.37,0.52,0.51,0.8c0.28,0.55,0.54,1.09,0.77,1.64c0.17,0.39,0.33,0.78,0.49,1.17s0.31,0.78,0.45,1.17l2.6,6.45
		c0.23,0.52,0.44,1.05,0.64,1.6c0.2,0.55,0.4,1.09,0.6,1.64c0.31,0.76,0.6,1.52,0.87,2.29c0.27,0.77,0.55,1.53,0.83,2.29
		c0.48,1.33,0.43,2.64-0.17,3.95c-0.23,0.44-0.5,0.81-0.81,1.09c-0.31,0.29-0.67,0.53-1.06,0.74c-0.4,0.05-0.79,0.08-1.17,0.1
		c-0.38,0.01-0.77-0.04-1.17-0.17c-0.31-0.1-0.6-0.27-0.85-0.51c-0.25-0.23-0.5-0.49-0.72-0.78c-0.14-0.21-0.26-0.44-0.36-0.68
		c-0.1-0.25-0.19-0.49-0.28-0.72c-0.08-0.16-0.17-0.27-0.26-0.35c-0.08-0.08-0.21-0.12-0.38-0.12c-0.34,0.03-0.67,0.03-1,0.02
		c-0.33-0.01-0.65,0-0.96,0.02c-0.14,0-0.28-0.02-0.41-0.06c-0.13-0.04-0.26-0.06-0.4-0.06h-3.28L416.89,195.39z M413.19,195.7
		c-0.06-0.05-0.11-0.1-0.15-0.14c-0.04-0.04-0.09-0.07-0.15-0.1c-0.14-0.05-0.21,0-0.21,0.16c0,0.1,0.03,0.19,0.08,0.25
		c0.06,0.07,0.13,0.07,0.21,0.02L413.19,195.7z M415.66,196.13c-0.23,0-0.3,0.1-0.21,0.31L415.66,196.13z M420.13,186.05l-0.94,2.58
		c-0.14,0.29-0.13,0.57,0.04,0.86c0.34,0.05,0.69,0.08,1.04,0.08c0.35,0,0.7,0,1.04,0c0.08-0.29,0.13-0.48,0.15-0.59
		c0.01-0.1-0.01-0.24-0.06-0.39c-0.14-0.39-0.29-0.77-0.45-1.15c-0.16-0.38-0.32-0.76-0.49-1.15c-0.03-0.05-0.08-0.09-0.15-0.12
		C420.25,186.14,420.18,186.1,420.13,186.05z"/>
	<path class="st1" d="M440.06,190.66c0.4,0.05,0.78,0.1,1.15,0.16s0.74,0.07,1.11,0.04c0.94-0.08,1.89-0.01,2.85,0.2
		c0.74,0.18,1.33,0.68,1.79,1.49c0.2,0.37,0.36,0.75,0.47,1.15c0.11,0.4,0.15,0.83,0.13,1.27c0,0.34-0.05,0.66-0.15,0.96
		c-0.1,0.3-0.22,0.59-0.36,0.88l-0.17,0.2c-0.31,0.65-0.71,1.09-1.19,1.33c-0.48,0.24-1.02,0.37-1.62,0.39h-4.81
		c-0.48,0-0.95,0.01-1.41,0.02c-0.45,0.01-0.92,0.01-1.41-0.02c-0.74-0.05-1.39-0.27-1.96-0.66c-0.57-0.39-1.01-1.02-1.32-1.87
		c-0.23-0.7-0.34-1.39-0.34-2.07v-2.15c0-1.07,0.01-2.12,0.02-3.17s0.02-2.1,0.02-3.17c0-0.65-0.01-1.3-0.02-1.95
		c-0.01-0.65-0.02-1.3-0.02-1.95c0-0.31,0-0.63,0-0.94c0-0.31,0.03-0.63,0.08-0.94c0.03-0.29,0.03-0.57,0-0.84s-0.06-0.55-0.08-0.84
		c0-0.36-0.01-0.74-0.02-1.13c-0.01-0.39,0.05-0.77,0.19-1.13c0.03-0.6,0.19-1.09,0.47-1.47c0.28-0.38,0.58-0.75,0.89-1.11
		c0.17-0.18,0.35-0.32,0.55-0.41c0.2-0.09,0.4-0.16,0.6-0.21c0.43-0.13,0.86-0.16,1.3-0.1c0.44,0.07,0.85,0.21,1.24,0.43
		c0.38,0.22,0.72,0.52,1.02,0.9c0.3,0.38,0.52,0.81,0.66,1.31c0.26,0.94,0.34,1.94,0.26,3.01v4.96c-0.06,0.63-0.06,1.25,0,1.88
		c0.03,0.44,0.03,0.89,0.02,1.33c-0.01,0.44-0.02,0.89-0.02,1.33c0,0.5,0.01,0.98,0.02,1.45S440.03,190.14,440.06,190.66z"/>
	<path class="st1" d="M449.9,185.04c-0.06-0.57-0.06-1.13,0-1.68c0.06-0.55,0.13-1.08,0.21-1.6c0.08-0.36,0.18-0.73,0.28-1.09
		c0.1-0.36,0.23-0.73,0.4-1.09c0-0.03,0.01-0.05,0.04-0.08c0.14-0.26,0.25-0.54,0.34-0.84c0.08-0.3,0.24-0.58,0.47-0.84
		c0.2-0.21,0.37-0.44,0.51-0.7c0.14-0.26,0.28-0.52,0.43-0.78l0.47-0.59c0.4-0.44,0.79-0.85,1.19-1.23c0.4-0.38,0.82-0.73,1.28-1.08
		c0.43-0.34,0.86-0.62,1.3-0.84c0.44-0.22,0.9-0.42,1.38-0.61c0.45-0.21,0.92-0.35,1.38-0.41c0.47-0.07,0.94-0.11,1.43-0.14
		c0.8-0.05,1.56,0.01,2.3,0.18c0.74,0.17,1.48,0.41,2.21,0.72c0.51,0.21,0.99,0.46,1.45,0.76c0.45,0.3,0.91,0.62,1.36,0.96
		c0.11,0.1,0.19,0.18,0.21,0.23c0.4,0.44,0.8,0.89,1.19,1.33c0.4,0.44,0.75,0.95,1.07,1.52l0.38,0.59c0.14,0.21,0.25,0.42,0.34,0.62
		c0.08,0.21,0.17,0.43,0.25,0.66c0.37,0.99,0.67,1.97,0.89,2.93c0.14,0.65,0.26,1.31,0.34,1.97c0.08,0.66,0.1,1.34,0.04,2.01
		c0,0.16-0.01,0.27-0.04,0.35c-0.17,0.83-0.35,1.66-0.53,2.48c-0.18,0.82-0.43,1.63-0.75,2.44c-0.11,0.29-0.23,0.55-0.34,0.8
		c-0.11,0.25-0.24,0.49-0.38,0.72l-0.51,0.78c-0.14,0.26-0.29,0.5-0.45,0.72c-0.16,0.22-0.35,0.42-0.58,0.61
		c-0.08,0.05-0.16,0.12-0.23,0.21c-0.07,0.09-0.14,0.18-0.19,0.25c-0.23,0.26-0.45,0.5-0.68,0.72s-0.47,0.42-0.72,0.61
		c-0.91,0.68-1.87,1.17-2.9,1.49c-0.26,0.05-0.5,0.12-0.75,0.21c-0.24,0.09-0.48,0.17-0.7,0.25c-0.17,0.05-0.3,0.08-0.38,0.08
		c-1.45,0.13-2.85,0.04-4.22-0.27c-0.08,0-0.16-0.01-0.21-0.04c-0.57-0.26-1.14-0.53-1.7-0.8c-0.57-0.27-1.12-0.62-1.66-1.04
		c-0.43-0.36-0.85-0.74-1.26-1.13c-0.41-0.39-0.82-0.78-1.21-1.17c-0.03-0.05-0.06-0.08-0.08-0.1c-0.03-0.01-0.04-0.04-0.04-0.1
		c-0.31-0.57-0.62-1.14-0.92-1.7c-0.3-0.56-0.56-1.15-0.79-1.78c-0.11-0.26-0.21-0.52-0.28-0.78c-0.07-0.26-0.16-0.52-0.28-0.78
		c-0.06-0.18-0.11-0.35-0.15-0.51c-0.04-0.16-0.05-0.34-0.02-0.55c0-0.13-0.02-0.22-0.04-0.27c-0.14-0.44-0.2-0.88-0.17-1.31
		C449.93,185.92,449.93,185.48,449.9,185.04z M457.06,185.11c0.03,0.21,0.03,0.4,0.02,0.57c-0.01,0.17,0.01,0.35,0.06,0.53
		c0.17,0.68,0.4,1.3,0.68,1.86c0.28,0.56,0.71,1.02,1.28,1.39c0.45,0.31,0.92,0.55,1.38,0.7s0.96,0.2,1.47,0.12
		c0.6-0.1,1.14-0.3,1.62-0.59c0.48-0.29,0.89-0.73,1.24-1.33l0.25-0.35c0.14-0.13,0.25-0.3,0.34-0.51c0.08-0.21,0.15-0.42,0.21-0.63
		c0.06-0.31,0.12-0.63,0.19-0.94c0.07-0.31,0.09-0.64,0.06-0.98c-0.06-0.57-0.15-1.11-0.28-1.62c-0.13-0.51-0.35-0.97-0.66-1.39
		l-0.38-0.47c-0.4-0.57-0.86-0.98-1.38-1.21c-0.53-0.23-1.08-0.38-1.68-0.43c-0.57-0.03-1.09,0.08-1.55,0.33
		c-0.47,0.25-0.92,0.55-1.34,0.92c-0.08,0.05-0.18,0.16-0.3,0.31c-0.37,0.55-0.67,1.12-0.92,1.72
		C457.13,183.72,457.03,184.38,457.06,185.11z"/>
	<path class="st1" d="M481.59,172.45c0.54,0.03,1.08,0.04,1.62,0.04c0.54,0,1.08,0.03,1.62,0.08c0.88,0.1,1.71,0.35,2.49,0.74
		c0.78,0.39,1.48,0.95,2.11,1.68c0.48,0.52,0.91,1.11,1.28,1.76c0.37,0.65,0.65,1.36,0.85,2.11c0.14,0.65,0.25,1.3,0.34,1.95
		c0.09,0.65,0.07,1.32-0.04,1.99c-0.14,0.73-0.28,1.45-0.41,2.15c-0.13,0.7-0.38,1.37-0.75,1.99c-0.08,0.13-0.17,0.25-0.25,0.35
		c-0.08,0.1-0.16,0.22-0.21,0.35l-0.38,0.55c-0.14,0.24-0.14,0.47,0,0.7l0.25,0.51c0.34,0.52,0.64,1.06,0.89,1.6
		c0.26,0.55,0.5,1.12,0.72,1.72c0.2,0.55,0.31,1.11,0.34,1.68c0.03,0.57-0.07,1.16-0.3,1.76c-0.43,1.09-1.08,1.84-1.96,2.23
		c-0.57,0.23-1.16,0.31-1.79,0.23c-0.63-0.1-1.15-0.36-1.58-0.78c-0.43-0.42-0.81-0.9-1.15-1.45c-0.23-0.34-0.43-0.7-0.6-1.08
		c-0.17-0.38-0.36-0.75-0.55-1.11l-1.15-2.31l-0.25-0.35c-0.06-0.05-0.12-0.06-0.19-0.02c-0.07,0.04-0.11,0.09-0.11,0.14
		c-0.03,0.13-0.06,0.26-0.09,0.39c-0.03,0.13-0.04,0.26-0.04,0.39c0.06,0.39,0.07,0.79,0.04,1.19c-0.03,0.4-0.04,0.8-0.04,1.19
		c0,0.44-0.1,0.85-0.3,1.21c-0.14,0.21-0.26,0.44-0.34,0.68c-0.08,0.25-0.2,0.48-0.34,0.68c-0.63,0.83-1.42,1.28-2.39,1.33
		c-0.45,0-0.95-0.09-1.49-0.27c-0.31-0.08-0.58-0.23-0.79-0.45c-0.21-0.22-0.42-0.46-0.62-0.72c-0.4-0.6-0.67-1.32-0.81-2.15
		c-0.08-0.55-0.14-1.09-0.15-1.62c-0.01-0.53-0.02-1.06-0.02-1.58c-0.03-1.04-0.04-2.08-0.02-3.13c0.01-1.04,0.03-2.08,0.06-3.13
		c0-0.47-0.01-0.94-0.02-1.43c-0.01-0.48-0.01-0.96,0.02-1.43c0-0.21,0-0.42,0-0.63c0-0.21,0.02-0.42,0.04-0.62v-0.35
		c-0.06-0.31-0.08-0.63-0.08-0.96c0-0.33,0-0.66,0-1c-0.03-0.57-0.02-1.14,0.02-1.7c0.04-0.56,0.11-1.11,0.19-1.66
		c0.11-0.78,0.41-1.48,0.89-2.09c0.48-0.61,1.05-0.98,1.7-1.11c0.25-0.05,0.51-0.09,0.77-0.12c0.26-0.03,0.5-0.05,0.72-0.08h2.21
		V172.45z M482.52,180.54c-0.03,0.08-0.06,0.16-0.08,0.24c-0.03,0.08-0.04,0.17-0.04,0.27c-0.03,0.26-0.05,0.51-0.06,0.74
		c-0.01,0.23-0.02,0.48-0.02,0.74c0,0.57,0.21,0.87,0.64,0.9c0.2,0,0.4-0.02,0.6-0.06c0.2-0.04,0.4-0.07,0.6-0.1
		c0.03,0,0.07-0.03,0.13-0.08c0.48-0.44,0.68-0.99,0.6-1.64c-0.06-0.29-0.17-0.52-0.34-0.7c-0.17-0.18-0.37-0.31-0.6-0.39
		c-0.23-0.05-0.46-0.08-0.7-0.1C482.98,180.35,482.75,180.41,482.52,180.54z"/>
	<path class="st1" d="M493.94,185.7c0-1.51,0.01-3.02,0.02-4.51c0.01-1.5,0.01-3-0.02-4.51c0-0.91,0.27-1.76,0.81-2.54
		c0.14-0.16,0.28-0.32,0.41-0.49c0.13-0.17,0.26-0.32,0.41-0.45c0.69-0.6,1.44-0.82,2.27-0.66c0.54,0.08,1.01,0.25,1.41,0.51
		c0.49,0.29,0.86,0.65,1.11,1.09c0.26,0.44,0.46,0.95,0.6,1.52c0.08,0.34,0.14,0.68,0.17,1.04c0.03,0.35,0.04,0.71,0.04,1.07
		c-0.06,1.38-0.06,2.75,0,4.1c0,0.73,0,1.46,0,2.19c0,0.73-0.04,1.46-0.13,2.19c0,0.05,0.01,0.11,0.02,0.18
		c0.01,0.07,0.02,0.12,0.02,0.18c0.09,0.78,0.13,1.56,0.13,2.34c0,0.78-0.01,1.56-0.04,2.35c0,0.52-0.01,1.03-0.02,1.52
		c-0.01,0.5-0.01,1,0.02,1.53c0,0.44-0.06,0.86-0.17,1.25s-0.24,0.77-0.39,1.13c-0.14,0.36-0.35,0.68-0.62,0.94
		c-0.27,0.26-0.56,0.47-0.88,0.63c-1.14,0.62-2.27,0.6-3.38-0.08l-0.26-0.2c-0.17-0.24-0.35-0.46-0.54-0.68
		c-0.19-0.22-0.35-0.46-0.49-0.72c-0.34-0.62-0.51-1.3-0.51-2.03c0.03-1.49,0.03-2.96,0.02-4.44S493.94,187.18,493.94,185.7z"/>
	<path class="st1" d="M510.04,198.75c-0.65,0-1.29,0-1.92,0c-0.63,0-1.25-0.01-1.88-0.04c-1.33,0-2.43-0.69-3.28-2.07
		c-0.14-0.24-0.24-0.56-0.3-0.98c-0.08-0.42-0.16-0.83-0.21-1.23c-0.06-0.4-0.07-0.81-0.04-1.23c0.06-0.42,0.07-0.82,0.04-1.21
		c-0.03-0.39-0.04-0.8-0.04-1.21v-13.05c0-0.36,0.03-0.72,0.08-1.06c0.06-0.34,0.11-0.69,0.17-1.05c0.31-1.17,0.98-2.02,2-2.54
		c0.65-0.34,1.38-0.47,2.17-0.39c0.65,0.08,1.28,0.08,1.88,0c0.23-0.05,0.43-0.05,0.62,0.02c0.19,0.07,0.38,0.07,0.58,0.02
		c0.2-0.05,0.39-0.07,0.58-0.06c0.18,0.01,0.38,0.03,0.57,0.06c0.31,0.03,0.63,0.02,0.94-0.02c0.31-0.04,0.62-0.06,0.94-0.06
		c0.45-0.03,0.89-0.01,1.32,0.06c0.42,0.07,0.84,0.24,1.23,0.53c0.51,0.36,0.91,0.81,1.19,1.35c0.28,0.53,0.44,1.18,0.47,1.94
		c0.03,0.7-0.08,1.31-0.34,1.82c-0.25,0.51-0.58,0.98-0.98,1.43c-0.23,0.26-0.5,0.44-0.81,0.53c-0.31,0.09-0.63,0.15-0.94,0.17
		c-0.42,0.03-0.85,0.04-1.28,0.04c-0.43,0-0.84,0-1.24,0h-1.45c-0.31,0-0.47,0.18-0.47,0.55v1.17c0,0.26,0.11,0.39,0.34,0.39
		c0.23,0.03,0.45,0.05,0.68,0.06c0.23,0.01,0.45,0.02,0.68,0.02c0.31-0.03,0.64-0.04,0.98-0.04c0.34,0,0.67,0.03,0.98,0.08
		c0.45,0.05,0.89,0.31,1.3,0.76c0.41,0.46,0.66,0.94,0.75,1.46c0.06,0.34,0.06,0.68,0.02,1.02c-0.04,0.34-0.14,0.66-0.28,0.98
		c-0.2,0.34-0.4,0.64-0.62,0.92c-0.21,0.27-0.49,0.46-0.83,0.57c-0.23,0.1-0.43,0.16-0.6,0.16h-1.79c-0.17,0-0.33-0.01-0.49-0.02
		c-0.16-0.01-0.32-0.01-0.49,0.02c-0.23,0.03-0.39,0.08-0.49,0.18c-0.1,0.09-0.15,0.28-0.15,0.57c-0.03,0.21-0.03,0.4-0.02,0.57
		c0.01,0.17,0.02,0.35,0.02,0.53c0.06,0.26,0.17,0.39,0.34,0.39c0.11,0.03,0.3,0.04,0.55,0.04c0.57,0,1.14,0,1.7-0.02
		c0.57-0.01,1.14-0.01,1.7,0.02c1.05,0.05,1.9,0.52,2.55,1.41c0.28,0.42,0.47,0.85,0.55,1.29c0.08,0.44,0.13,0.9,0.13,1.37
		c0.03,0.52-0.05,1-0.23,1.45c-0.19,0.44-0.42,0.85-0.7,1.21c-0.37,0.52-0.88,0.85-1.53,0.98c-0.57,0.08-1.12,0.12-1.66,0.12
		c-0.51,0.03-1.02,0.03-1.53,0.02c-0.51-0.01-1.01-0.02-1.49-0.02V198.75z"/>
</g>
<polygon points="418,190.65 422.57,190.65 420.3,185.97 "/>
<path d="M481.41,179.56v4.05h2.01c1.24-0.11,1.92-0.79,2.04-2.01c-0.12-1.24-0.8-1.92-2.04-2.04H481.41z"/>
</svg>
